<svg xmlns="http://www.w3.org/2000/svg" xmlns:xlink="http://www.w3.org/1999/xlink" width="1852" height="244" viewBox="0 0 1852 244">
  <defs>
    <clipPath id="clip-Logo_W">
      <rect width="1852" height="244"/>
    </clipPath>
  </defs>
  <g id="Logo_W" clip-path="url(#clip-Logo_W)">
    <path id="Tracé_4767" data-name="Tracé 4767" d="M80.019-208.08H-73.9v33.354h59.058V0H21.267V-174.726H80.019ZM246.483-82.926c29.682-8.568,48.042-31.212,48.042-60.282,0-37.026-29.376-64.872-70.686-64.872h-81.7V0h36.108V-78.948h31.518L258.723,0h41V-.918Zm-68.238-26.01v-67.932h42.534c22.338,0,37.332,14.688,37.332,34.272,0,20.5-14.076,33.66-37.944,33.66ZM441.711,3.978c48.042,0,83.232-27.846,83.232-77.724V-208.08H488.835V-76.194c0,31.824-18.972,47.43-47.124,47.43-28.458,0-47.43-15.606-47.43-47.43V-208.08H358.173V-73.746C358.173-23.868,393.363,3.978,441.711,3.978Zm223.992,0c41.31,0,74.052-22.95,74.052-61.812,0-35.5-28.152-52.938-64.26-64.566-21.42-7.344-42.534-15.3-42.534-34.272,0-15.606,16.218-23.562,34.578-23.562,17.136,0,32.436,4.9,50.184,16.218l15.606-26.928c-22.95-15.3-43.452-21.114-67.626-21.114-37.638,0-69.462,20.5-69.462,57.222,0,33.048,27.234,52.02,62.118,63.342,23.562,7.65,44.982,15.912,44.982,35.5,0,18.36-18.054,27.846-38.862,27.846a89.513,89.513,0,0,1-58.14-21.42L589.509-21.42C610.011-5.2,637.245,3.978,665.7,3.978ZM938.043-208.08H784.125v33.354h59.058V0h36.108V-174.726h58.752Z" transform="translate(913.563 226.04)" fill="#28a0db"/>
    <path id="Tracé_4769" data-name="Tracé 4769" d="M-893.367-18.36V-97.614h91.494v-18.054h-91.494V-189.72h104.04v-18.36H-913.563V0h126.99V-18.36Zm333.54-189.72L-626.535-62.118c-3.672,7.956-8.568,18.666-11.628,27.234-2.754-7.65-6.12-14.994-11.322-26.316l-67.626-146.88h-21.114v.612l96.7,209h6.732l96.7-209v-.612ZM-452.421-18.36V-97.614h91.494v-18.054h-91.494V-189.72h104.04v-18.36H-472.617V0h126.99V-18.36Zm271.116-68.85c33.966-5.2,55.386-28.458,55.386-59.67,0-34.578-29.376-61.2-66.4-61.2h-78.642V0h20.2V-86.292h47.124L-145.2,0h23.256V-.918Zm-69.462-17.442V-189.72h58.446c27.234,0,46.206,18.972,46.206,43.146,0,24.786-18.054,41.922-47.124,41.922Z" transform="translate(913.563 226.062)" fill="#fff"/>
  </g>
</svg>
